<svg width="39" height="31" viewBox="0 0 39 31" fill="none" xmlns="http://www.w3.org/2000/svg">
<path d="M2.925 31C2.145 31 1.4625 30.7013 0.8775 30.1039C0.2925 29.5065 0 28.8365 0 28.0938V2.90625C0 2.16354 0.2925 1.49349 0.8775 0.896094C1.4625 0.298698 2.145 0 2.925 0H16.575L19.5 2.90625H36.075C36.8225 2.90625 37.4969 3.20495 38.0981 3.80234C38.6994 4.39974 39 5.06979 39 5.8125V28.0938C39 28.8365 38.6994 29.5065 38.0981 30.1039C37.4969 30.7013 36.8225 31 36.075 31H2.925ZM2.925 2.90625V28.0938H36.075V5.8125H18.2812L15.3562 2.90625H2.925ZM2.925 2.90625V28.0938V2.90625Z" fill="#4DCFE0"/>
</svg>
