<svg width="32" height="32" viewBox="0 0 32 32" fill="none" xmlns="http://www.w3.org/2000/svg">
<path d="M12.32 32L11.52 26.96C11.0133 26.7733 10.48 26.52 9.92 26.2C9.36 25.88 8.86667 25.5467 8.44 25.2L3.72 27.36L0 20.8L4.32 17.64C4.26667 17.4 4.23333 17.1267 4.22 16.82C4.20667 16.5133 4.2 16.24 4.2 16C4.2 15.76 4.20667 15.4867 4.22 15.18C4.23333 14.8733 4.26667 14.6 4.32 14.36L0 11.2L3.72 4.64L8.44 6.8C8.86667 6.45333 9.36 6.12 9.92 5.8C10.48 5.48 11.0133 5.24 11.52 5.08L12.32 0H19.68L20.48 5.04C20.9867 5.22667 21.5267 5.47333 22.1 5.78C22.6733 6.08667 23.16 6.42667 23.56 6.8L28.28 4.64L32 11.2L27.68 14.28C27.7333 14.5467 27.7667 14.8333 27.78 15.14C27.7933 15.4467 27.8 15.7333 27.8 16C27.8 16.2667 27.7933 16.5467 27.78 16.84C27.7667 17.1333 27.7333 17.4133 27.68 17.68L32 20.8L28.28 27.36L23.56 25.2C23.1333 25.5467 22.6467 25.8867 22.1 26.22C21.5533 26.5533 21.0133 26.8 20.48 26.96L19.68 32H12.32ZM16 21.2C17.44 21.2 18.6667 20.6933 19.68 19.68C20.6933 18.6667 21.2 17.44 21.2 16C21.2 14.56 20.6933 13.3333 19.68 12.32C18.6667 11.3067 17.44 10.8 16 10.8C14.56 10.8 13.3333 11.3067 12.32 12.32C11.3067 13.3333 10.8 14.56 10.8 16C10.8 17.44 11.3067 18.6667 12.32 19.68C13.3333 20.6933 14.56 21.2 16 21.2ZM16 18.8C15.2267 18.8 14.5667 18.5267 14.02 17.98C13.4733 17.4333 13.2 16.7733 13.2 16C13.2 15.2267 13.4733 14.5667 14.02 14.02C14.5667 13.4733 15.2267 13.2 16 13.2C16.7733 13.2 17.4333 13.4733 17.98 14.02C18.5267 14.5667 18.8 15.2267 18.8 16C18.8 16.7733 18.5267 17.4333 17.98 17.98C17.4333 18.5267 16.7733 18.8 16 18.8ZM14.24 29.6H17.76L18.32 25.12C19.2 24.9067 20.0333 24.5733 20.82 24.12C21.6067 23.6667 22.32 23.12 22.96 22.48L27.2 24.32L28.8 21.44L25.04 18.68C25.1467 18.2267 25.2333 17.78 25.3 17.34C25.3667 16.9 25.4 16.4533 25.4 16C25.4 15.5467 25.3733 15.1 25.32 14.66C25.2667 14.22 25.1733 13.7733 25.04 13.32L28.8 10.56L27.2 7.68L22.96 9.52C22.3467 8.82667 21.6533 8.24667 20.88 7.78C20.1067 7.31333 19.2533 7.01333 18.32 6.88L17.76 2.4H14.24L13.68 6.88C12.7733 7.06667 11.9267 7.38667 11.14 7.84C10.3533 8.29333 9.65333 8.85333 9.04 9.52L4.8 7.68L3.2 10.56L6.96 13.32C6.85333 13.7733 6.76667 14.22 6.7 14.66C6.63333 15.1 6.6 15.5467 6.6 16C6.6 16.4533 6.63333 16.9 6.7 17.34C6.76667 17.78 6.85333 18.2267 6.96 18.68L3.2 21.44L4.8 24.32L9.04 22.48C9.68 23.12 10.3933 23.6667 11.18 24.12C11.9667 24.5733 12.8 24.9067 13.68 25.12L14.24 29.6Z" fill="#4DCFE0"/>
</svg>
